<svg width="14" height="14" viewBox="0 0 14 14" fill="none" xmlns="http://www.w3.org/2000/svg">
<path d="M7.00004 10.9999C8.11115 10.9999 9.0556 10.611 9.83337 9.83325C10.6112 9.05547 11 8.11103 11 6.99992C11 6.03325 10.6917 5.18325 10.075 4.44992C9.45837 3.71659 8.67782 3.25547 7.73337 3.06659C7.53337 3.04436 7.36115 3.09992 7.21671 3.23325C7.07226 3.36659 7.00004 3.53325 7.00004 3.73325V6.99992L4.70004 9.29992C4.5556 9.44436 4.48893 9.61658 4.50004 9.81658C4.51115 10.0166 4.59448 10.1777 4.75004 10.2999C5.07226 10.5555 5.42782 10.736 5.81671 10.8416C6.2056 10.9471 6.60004 10.9999 7.00004 10.9999ZM7.00004 13.6666C6.07782 13.6666 5.21115 13.4916 4.40004 13.1416C3.58893 12.7916 2.88337 12.3166 2.28337 11.7166C1.68337 11.1166 1.20837 10.411 0.858374 9.59992C0.508374 8.78881 0.333374 7.92214 0.333374 6.99992C0.333374 6.0777 0.508374 5.21103 0.858374 4.39992C1.20837 3.58881 1.68337 2.88325 2.28337 2.28325C2.88337 1.68325 3.58893 1.20825 4.40004 0.858252C5.21115 0.508252 6.07782 0.333252 7.00004 0.333252C7.92226 0.333252 8.78893 0.508252 9.60004 0.858252C10.4112 1.20825 11.1167 1.68325 11.7167 2.28325C12.3167 2.88325 12.7917 3.58881 13.1417 4.39992C13.4917 5.21103 13.6667 6.0777 13.6667 6.99992C13.6667 7.92214 13.4917 8.78881 13.1417 9.59992C12.7917 10.411 12.3167 11.1166 11.7167 11.7166C11.1167 12.3166 10.4112 12.7916 9.60004 13.1416C8.78893 13.4916 7.92226 13.6666 7.00004 13.6666ZM7.00004 12.3333C8.48893 12.3333 9.75004 11.8166 10.7834 10.7833C11.8167 9.74992 12.3334 8.48881 12.3334 6.99992C12.3334 5.51103 11.8167 4.24992 10.7834 3.21659C9.75004 2.18325 8.48893 1.66659 7.00004 1.66659C5.51115 1.66659 4.25004 2.18325 3.21671 3.21659C2.18337 4.24992 1.66671 5.51103 1.66671 6.99992C1.66671 8.48881 2.18337 9.74992 3.21671 10.7833C4.25004 11.8166 5.51115 12.3333 7.00004 12.3333Z" fill="#84C16B"/>
</svg>
